<svg width="36" height="51" viewBox="0 0 36 51" fill="none" xmlns="http://www.w3.org/2000/svg">
<path d="M15.8259 1.38421C17.0048 0.205343 18.9161 0.205343 20.095 1.38422L35.0368 16.326C36.2156 17.5049 36.2156 19.4162 35.0368 20.5951L20.095 35.5369C18.9161 36.7157 17.0048 36.7157 15.8259 35.5369L0.884154 20.5951C-0.294718 19.4162 -0.294718 17.5049 0.884155 16.326L15.8259 1.38421Z" fill="url(#paint0_linear_4_64)"/>
<path d="M15.8259 15.4633C17.0048 14.2844 18.9161 14.2844 20.095 15.4633L35.0368 30.405C36.2156 31.5839 36.2156 33.4952 35.0368 34.6741L20.095 49.6159C18.9161 50.7947 17.0048 50.7947 15.8259 49.6159L0.884154 34.6741C-0.294718 33.4952 -0.294718 31.5839 0.884155 30.405L15.8259 15.4633Z" fill="url(#paint1_linear_4_64)"/>
<defs>
<linearGradient id="paint0_linear_4_64" x1="7.99876" y1="8.34791" x2="27.6203" y2="27.9694" gradientUnits="userSpaceOnUse">
<stop stop-color="#4A6CF7"/>
<stop offset="1" stop-color="#4A6CF7" stop-opacity="0"/>
</linearGradient>
<linearGradient id="paint1_linear_4_64" x1="7.99878" y1="22.4269" x2="27.6203" y2="42.0484" gradientUnits="userSpaceOnUse">
<stop stop-color="#4A6CF7" stop-opacity="0"/>
<stop offset="1" stop-color="#4A6CF7"/>
</linearGradient>
</defs>
</svg>
