<svg width="24" height="25" viewBox="0 0 24 25" fill="none" xmlns="http://www.w3.org/2000/svg">
<path d="M11.875 20.2391C11.9417 20.2391 12.0083 20.2225 12.075 20.1891C12.1417 20.1558 12.1917 20.1225 12.225 20.0891L20.425 11.8891C20.625 11.6891 20.7708 11.4641 20.8625 11.2141C20.9542 10.9641 21 10.7141 21 10.4641C21 10.1975 20.9542 9.9433 20.8625 9.70164C20.7708 9.45997 20.625 9.24747 20.425 9.06414L16.175 4.81414C15.9917 4.61414 15.7792 4.4683 15.5375 4.37664C15.2958 4.28497 15.0417 4.23914 14.775 4.23914C14.525 4.23914 14.275 4.28497 14.025 4.37664C13.775 4.4683 13.55 4.61414 13.35 4.81414L13.075 5.08914L14.925 6.96414C15.175 7.19747 15.3583 7.46414 15.475 7.76414C15.5917 8.06414 15.65 8.3808 15.65 8.71414C15.65 9.41414 15.4125 10.0016 14.9375 10.4766C14.4625 10.9516 13.875 11.1891 13.175 11.1891C12.8417 11.1891 12.5208 11.1308 12.2125 11.0141C11.9042 10.8975 11.6333 10.7225 11.4 10.4891L9.52499 8.63914L5.14999 13.0141C5.09999 13.0641 5.06249 13.1183 5.03749 13.1766C5.01249 13.235 4.99999 13.2975 4.99999 13.3641C4.99999 13.4975 5.04999 13.6183 5.14999 13.7266C5.24999 13.835 5.36666 13.8891 5.49999 13.8891C5.56666 13.8891 5.63332 13.8725 5.69999 13.8391C5.76666 13.8058 5.81666 13.7725 5.84999 13.7391L9.24999 10.3391L10.65 11.7391L7.27499 15.1391C7.22499 15.1891 7.18749 15.2433 7.16249 15.3016C7.13749 15.36 7.12499 15.4225 7.12499 15.4891C7.12499 15.6225 7.17499 15.7391 7.27499 15.8391C7.37499 15.9391 7.49166 15.9891 7.62499 15.9891C7.69166 15.9891 7.75832 15.9725 7.82499 15.9391C7.89166 15.9058 7.94166 15.8725 7.97499 15.8391L11.375 12.4641L12.775 13.8641L9.39999 17.2641C9.34999 17.2975 9.31249 17.3475 9.28749 17.4141C9.26249 17.4808 9.24999 17.5475 9.24999 17.6141C9.24999 17.7475 9.29999 17.8641 9.39999 17.9641C9.49999 18.0641 9.61666 18.1141 9.74999 18.1141C9.81666 18.1141 9.87916 18.1016 9.93749 18.0766C9.99582 18.0516 10.05 18.0141 10.1 17.9641L13.5 14.5891L14.9 15.9891L11.5 19.3891C11.45 19.4391 11.4125 19.4933 11.3875 19.5516C11.3625 19.61 11.35 19.6725 11.35 19.7391C11.35 19.8725 11.4042 19.9891 11.5125 20.0891C11.6208 20.1891 11.7417 20.2391 11.875 20.2391ZM11.85 22.2391C11.2333 22.2391 10.6875 22.035 10.2125 21.6266C9.73749 21.2183 9.45832 20.7058 9.37499 20.0891C8.80832 20.0058 8.33332 19.7725 7.94999 19.3891C7.56666 19.0058 7.33332 18.5308 7.24999 17.9641C6.68332 17.8808 6.21249 17.6433 5.83749 17.2516C5.46249 16.86 5.23332 16.3891 5.14999 15.8391C4.51666 15.7558 3.99999 15.4808 3.59999 15.0141C3.19999 14.5475 2.99999 13.9975 2.99999 13.3641C2.99999 13.0308 3.06249 12.71 3.18749 12.4016C3.31249 12.0933 3.49166 11.8225 3.72499 11.5891L9.52499 5.81414L12.8 9.08914C12.8333 9.13914 12.8833 9.17664 12.95 9.20164C13.0167 9.22664 13.0833 9.23914 13.15 9.23914C13.3 9.23914 13.425 9.1933 13.525 9.10164C13.625 9.00997 13.675 8.88914 13.675 8.73914C13.675 8.67247 13.6625 8.6058 13.6375 8.53914C13.6125 8.47247 13.575 8.42247 13.525 8.38914L9.94999 4.81414C9.76666 4.61414 9.55416 4.4683 9.31249 4.37664C9.07082 4.28497 8.81666 4.23914 8.54999 4.23914C8.29999 4.23914 8.04999 4.28497 7.79999 4.37664C7.54999 4.4683 7.32499 4.61414 7.12499 4.81414L3.59999 8.36414C3.44999 8.51414 3.32499 8.68914 3.22499 8.88914C3.12499 9.08914 3.05832 9.28914 3.02499 9.48914C2.99166 9.68914 2.99166 9.8933 3.02499 10.1016C3.05832 10.31 3.12499 10.5058 3.22499 10.6891L1.77499 12.1391C1.49166 11.7558 1.28332 11.335 1.14999 10.8766C1.01666 10.4183 0.966657 9.9558 0.99999 9.48914C1.03332 9.02247 1.14999 8.5683 1.34999 8.12664C1.54999 7.68497 1.82499 7.28914 2.17499 6.93914L5.69999 3.41414C6.09999 3.0308 6.54582 2.73914 7.03749 2.53914C7.52916 2.33914 8.03332 2.23914 8.54999 2.23914C9.06666 2.23914 9.57082 2.33914 10.0625 2.53914C10.5542 2.73914 10.9917 3.0308 11.375 3.41414L11.65 3.68914L11.925 3.41414C12.325 3.0308 12.7708 2.73914 13.2625 2.53914C13.7542 2.33914 14.2583 2.23914 14.775 2.23914C15.2917 2.23914 15.7958 2.33914 16.2875 2.53914C16.7792 2.73914 17.2167 3.0308 17.6 3.41414L21.825 7.63914C22.2083 8.02247 22.5 8.46414 22.7 8.96414C22.9 9.46414 23 9.97247 23 10.4891C23 11.0058 22.9 11.51 22.7 12.0016C22.5 12.4933 22.2083 12.9308 21.825 13.3141L13.625 21.4891C13.3917 21.7225 13.1208 21.9058 12.8125 22.0391C12.5042 22.1725 12.1833 22.2391 11.85 22.2391Z" fill="#4465E3"/>
</svg>
