<svg width="33" height="34" viewBox="0 0 33 34" fill="none" xmlns="http://www.w3.org/2000/svg">
<path d="M20.1667 33.5H1.83333C1.3471 33.5 0.88079 33.3068 0.53697 32.963C0.19315 32.6192 0 32.1529 0 31.6667V13.3333H20.1667V33.5ZM33 9.6667H0V2.33333C0 1.8471 0.19315 1.38079 0.53697 1.03697C0.88079 0.69315 1.3471 0.5 1.83333 0.5H31.1667C31.6529 0.5 32.1192 0.69315 32.463 1.03697C32.8068 1.38079 33 1.8471 33 2.33333V9.6667Z" fill="white"/>
<path opacity="0.5" d="M24 33V1H33V30.091C33 30.8624 32.8104 31.6025 32.4729 32.1481C32.1353 32.6936 31.6774 33 31.2 33H24Z" fill="white"/>
</svg>
