<svg width="37" height="38" viewBox="0 0 37 38" fill="none" xmlns="http://www.w3.org/2000/svg">
<path d="M18.5 0.666626C28.6255 0.666626 36.8333 8.8745 36.8333 19C36.8333 29.1255 28.6255 37.3333 18.5 37.3333C8.3745 37.3333 0.16663 29.1255 0.16663 19C0.16663 8.8745 8.3745 0.666626 18.5 0.666626ZM18.5 4.33329C10.4003 4.33329 3.83329 10.9003 3.83329 19C3.83329 27.0996 10.4003 33.6666 18.5 33.6666C26.5996 33.6666 33.1666 27.0996 33.1666 19C33.1666 10.9003 26.5996 4.33329 18.5 4.33329ZM26.277 8.6288L28.8711 11.2211L22.0438 18.0521C22.1245 18.3546 22.1666 18.6718 22.1666 19C22.1666 21.0258 20.5258 22.6666 18.5 22.6666C16.4741 22.6666 14.8333 21.0258 14.8333 19C14.8333 16.9741 16.4741 15.3333 18.5 15.3333C18.8281 15.3333 19.1453 15.3755 19.4478 15.4561L26.2788 8.6288H26.277Z" fill="white"/>
<path opacity="0.5" d="M18.5 6.16663C20.3663 6.16663 22.1391 6.56446 23.7396 7.2813L20.8741 10.145C20.117 9.9433 19.3213 9.8333 18.5 9.8333C13.4381 9.8333 9.3333 13.9381 9.3333 19C9.3333 21.53 10.36 23.8216 12.0173 25.4826L9.425 28.075L9.139 27.7798C6.9866 25.4845 5.66663 22.3953 5.66663 19C5.66663 11.9123 11.4123 6.16663 18.5 6.16663ZM30.2186 13.7621C30.9336 15.3608 31.3333 17.1355 31.3333 19C31.3333 22.5438 29.896 25.7521 27.575 28.075L24.9826 25.4826C26.64 23.8216 27.6666 21.53 27.6666 19C27.6666 18.1786 27.5585 17.383 27.355 16.6258L30.2186 13.7621Z" fill="white"/>
</svg>
