<svg width="37" height="38" viewBox="0 0 37 38" fill="none" xmlns="http://www.w3.org/2000/svg">
<path opacity="0.5" d="M6.51541 5.12714C9.84211 2.24452 14.098 0.660504 18.4999 0.666644C28.6254 0.666644 36.8332 8.8745 36.8332 19C36.8332 22.916 35.6049 26.546 33.5149 29.5233L27.6665 19H33.1665C33.1668 16.1246 32.3218 13.3126 30.7368 10.9136C29.1517 8.5146 26.8964 6.63443 24.2514 5.50687C21.6063 4.37931 18.6882 4.0541 15.8598 4.57168C13.0314 5.08926 10.4175 6.42679 8.34321 8.418L6.51541 5.12714Z" fill="white"/>
<path d="M30.4843 32.8729C27.1576 35.7555 22.9017 37.3395 18.4998 37.3333C8.3743 37.3333 0.166504 29.1255 0.166504 19C0.166504 15.084 1.39484 11.454 3.48484 8.47668L9.3332 19H3.83317C3.83293 21.8754 4.67788 24.6874 6.26295 27.0864C7.848 29.4854 10.1033 31.3656 12.7483 32.4931C15.3934 33.6207 18.3115 33.9459 21.1399 33.4283C23.9683 32.9107 26.5822 31.5732 28.6565 29.582L30.4843 32.8729Z" fill="white"/>
</svg>
