<svg width="35" height="38" viewBox="0 0 35 38" fill="none" xmlns="http://www.w3.org/2000/svg">
<path d="M18.4423 0.70402L34.5225 10.351C34.6584 10.4324 34.7709 10.5476 34.8491 10.6855C34.9272 10.8233 34.9683 10.9791 34.9683 11.1375C34.9683 11.296 34.9272 11.4517 34.8491 11.5896C34.7709 11.7274 34.6584 11.8426 34.5225 11.924L17.5 22.1375L0.477489 11.924C0.341539 11.8426 0.229009 11.7274 0.150869 11.5896C0.0727394 11.4517 0.0316696 11.296 0.0316696 11.1375C0.0316696 10.9791 0.0727394 10.8233 0.150869 10.6855C0.229009 10.5476 0.341539 10.4324 0.477489 10.351L16.5558 0.70402C16.8409 0.53271 17.1673 0.4422 17.5 0.4422C17.8326 0.4422 18.159 0.53271 18.4441 0.70402H18.4423Z" fill="white"/>
<path opacity="0.5" d="M32.3188 16.1375L34.5225 17.4593C34.6584 17.5407 34.7709 17.6559 34.8491 17.7938C34.9272 17.9316 34.9683 18.0873 34.9683 18.2458C34.9683 18.4042 34.9272 18.56 34.8491 18.6978C34.7709 18.8357 34.6584 18.9509 34.5225 19.0323L17.5 29.2458L0.477489 19.0323C0.341539 18.9509 0.229009 18.8357 0.150869 18.6978C0.0727394 18.56 0.0316696 18.4042 0.0316696 18.2458C0.0316696 18.0873 0.0727394 17.9316 0.150869 17.7938C0.229009 17.6559 0.341539 17.5407 0.477489 17.4593L2.68116 16.1375L17.5 25.0291L32.3188 16.1375ZM32.3188 24.7541L34.5225 26.076C34.6584 26.1573 34.7709 26.2726 34.8491 26.4104C34.9272 26.5483 34.9683 26.704 34.9683 26.8625C34.9683 27.0209 34.9272 27.1767 34.8491 27.3145C34.7709 27.4523 34.6584 27.5676 34.5225 27.649L18.4441 37.296C18.159 37.4673 17.8326 37.5578 17.5 37.5578C17.1673 37.5578 16.8409 37.4673 16.5558 37.296L0.477489 27.649C0.341539 27.5676 0.229009 27.4523 0.150869 27.3145C0.0727394 27.1767 0.0316696 27.0209 0.0316696 26.8625C0.0316696 26.704 0.0727394 26.5483 0.150869 26.4104C0.229009 26.2726 0.341539 26.1573 0.477489 26.076L2.68116 24.7541L17.5 33.6458L32.3188 24.7541Z" fill="white"/>
</svg>
