<svg width="33" height="36" viewBox="0 0 33 36" fill="none" xmlns="http://www.w3.org/2000/svg">
<path opacity="0.5" d="M33 7.33331H0V1.83327C0 1.34704 0.19315 0.880719 0.53697 0.536909C0.88079 0.193089 1.3471 -6.10352e-05 1.83333 -6.10352e-05H31.1667C31.6529 -6.10352e-05 32.1192 0.193089 32.463 0.536909C32.8068 0.880719 33 1.34704 33 1.83327V7.33331Z" fill="white"/>
<path d="M31.1667 36H1.83333C1.3471 36 0.88079 35.8068 0.53697 35.463C0.19315 35.1192 0 34.6529 0 34.1666V10.3333H33V34.1666C33 34.6529 32.8068 35.1192 32.463 35.463C32.1192 35.8068 31.6529 36 31.1667 36ZM7.3333 15.8333V23.1666H14.6667V15.8333H7.3333ZM7.3333 26.8333V30.5H25.6667V26.8333H7.3333ZM18.3333 17.6666V21.3333H25.6667V17.6666H18.3333Z" fill="white"/>
</svg>
